<svg width="27" height="26" viewBox="0 0 27 26" fill="none" xmlns="http://www.w3.org/2000/svg">
<g clip-path="url(#clip0_24_2447)">
<path d="M16.5155 26.0001C16.5023 25.9718 16.4868 25.9446 16.4691 25.9189L13.1465 21.5082L13.042 21.3689L16.5248 16.7725H16.5481V18.6296H16.6943H22.4759C22.6941 18.6296 22.9147 18.6296 23.1353 18.6296C23.8675 18.6227 24.5914 18.4737 25.2668 18.1909C25.7288 17.9966 26.1374 17.694 26.4579 17.3087C26.4623 17.3038 26.4677 17.2998 26.4737 17.297C26.4796 17.2942 26.4861 17.2927 26.4927 17.2925C26.4765 17.325 26.4626 17.3598 26.444 17.39L24.3171 21.3364C24.0176 21.8935 23.7134 22.4507 23.4185 23.0125C23.3075 23.2201 23.1531 23.4014 22.9658 23.5441C22.5836 23.8361 22.1506 24.0549 21.6887 24.1894C21.2074 24.3592 20.7079 24.4722 20.2004 24.526C19.7592 24.5585 19.3134 24.5771 18.87 24.5957L16.6479 24.6816C16.6177 24.6816 16.5852 24.6816 16.5411 24.6816V25.9909L16.5155 26.0001Z" fill="black"/>
<path d="M10.3813 0.01625H10.4835L16.9686 0C17.1489 0.00603682 17.3263 0.0470341 17.491 0.120714C17.8577 0.272475 18.196 0.485181 18.4917 0.749821C19.0001 1.19545 19.4384 1.71509 19.792 2.29125C20.1333 2.83911 20.4561 3.39857 20.7858 3.95339L21.4963 5.15589C21.5148 5.18839 21.5334 5.21857 21.5613 5.26036L22.6874 4.65446C22.6874 4.65446 22.6874 4.65446 22.699 4.66607C22.7106 4.67768 22.699 4.66607 22.699 4.66607C22.7003 4.67919 22.7003 4.69242 22.699 4.70554L20.3121 9.91482L14.6118 9.05357V9.03036L16.2534 8.125C16.2372 8.09018 16.2232 8.05768 16.207 8.0275C15.2782 6.30036 14.3495 4.57554 13.4207 2.84839C13.2488 2.51562 13.0589 2.19246 12.8518 1.88036C12.5296 1.39701 12.1303 0.969635 11.67 0.615179C11.2984 0.331415 10.8674 0.135391 10.4092 0.0417857H10.3813V0.01625Z" fill="black"/>
<path d="M7.05401 8.93945C7.76915 10.7316 8.48042 12.5168 9.18783 14.295L9.16926 14.3136C8.63522 13.9955 8.1035 13.6659 7.56482 13.3432C7.53 13.4036 7.49749 13.4523 7.4673 13.5011C6.46424 15.1539 5.46583 16.8091 4.44884 18.4573C4.23081 18.7966 4.0331 19.1485 3.85676 19.5112C3.6406 19.9695 3.492 20.4566 3.41559 20.9575C3.33228 21.4554 3.37133 21.9661 3.52937 22.4455C3.53664 22.4737 3.53664 22.5033 3.52937 22.5314C3.50615 22.4989 3.48525 22.4641 3.46435 22.4316C2.36842 20.5745 1.27326 18.7173 0.178871 16.8602C0.0838872 16.6701 0.0308351 16.4619 0.0233034 16.2496C-0.0292371 15.6857 0.0339715 15.1169 0.209055 14.5782C0.399496 13.9573 0.659659 13.36 0.984569 12.7977C1.44895 11.9805 1.89243 11.1727 2.3452 10.3462C2.3661 10.3114 2.38467 10.2743 2.40789 10.2278L1.31196 9.55231V9.52678L7.05401 8.93945Z" fill="black"/>
<path d="M10.3137 7.91816L5.20557 4.78888C5.22879 4.74941 5.24504 4.71691 5.26361 4.68673C5.85183 3.72257 6.44004 2.7584 7.02826 1.79423C7.04566 1.76233 7.06587 1.73203 7.08862 1.7037C7.503 1.20079 8.0305 0.803055 8.62804 0.542982C8.98011 0.386259 9.3652 0.318072 9.7497 0.344375C10.1342 0.370677 10.5064 0.490668 10.8338 0.693875C10.9058 0.737982 10.9848 0.768161 11.066 0.809946C11.3199 0.957982 11.5487 1.14524 11.744 1.36477C12.1122 1.77019 12.4246 2.22301 12.6728 2.7112C12.8075 2.9712 12.9282 3.23816 13.0559 3.49816L10.3137 7.91816Z" fill="black"/>
<path d="M10.3927 18.5711C10.3556 20.5745 10.3184 22.5617 10.2789 24.5651H10.1373L8.08939 24.5279C7.72253 24.5279 7.35567 24.5094 6.98881 24.5117C6.71328 24.5116 6.43932 24.4702 6.17614 24.3886C5.6605 24.2499 5.17962 24.0047 4.76443 23.669C4.31516 23.3047 4.0166 22.787 3.92622 22.2158C3.91461 22.1392 3.90533 22.0626 3.90068 21.9836C3.90068 21.8351 3.88211 21.6842 3.87746 21.5333C3.87649 21.291 3.90851 21.0496 3.97266 20.816C4.11431 20.2949 4.3318 19.7974 4.61815 19.3395C4.78068 19.0703 4.96411 18.8126 5.13361 18.5479C5.15158 18.5167 5.17833 18.4915 5.21054 18.4754C5.24274 18.4593 5.27897 18.453 5.31472 18.4574C5.99736 18.476 6.67999 18.4876 7.36263 18.5038L10.0932 18.5711H10.3927Z" fill="black"/>
<path d="M22.1463 18.0279L19.5527 13.5336L24.7306 10.5273C24.7472 10.5481 24.7627 10.5698 24.777 10.5923C25.3575 11.5836 25.9379 12.5702 26.5115 13.5661C26.6018 13.7502 26.6704 13.9442 26.7158 14.1441C26.8281 14.526 26.8782 14.9233 26.8644 15.3211C26.8674 15.9624 26.6171 16.5789 26.1678 17.0366L26.0796 17.1179C25.5575 17.5797 24.9119 17.8791 24.2221 17.9791C23.6879 18.0564 23.1473 18.0805 22.6083 18.0511L22.1463 18.0279Z" fill="black"/>
</g>
<defs>
<clipPath id="clip0_24_2447">
<rect width="26.8667" height="26" fill="white"/>
</clipPath>
</defs>
</svg>
